<?xml version="1.0" encoding="UTF-8"?>
<svg version="1.1" xmlns="http://www.w3.org/2000/svg" width="1024" height="1024">
<path d="M0 0 C337.92 0 675.84 0 1024 0 C1024 337.92 1024 675.84 1024 1024 C686.08 1024 348.16 1024 0 1024 C0 686.08 0 348.16 0 0 Z " fill="#FCFCFC" transform="translate(0,0)"/>
<path d="M0 0 C0.90718279 -0.00538554 1.81436558 -0.01077108 2.74903876 -0.01631981 C5.76582205 -0.03054054 8.78216291 -0.02351023 11.79896545 -0.01637268 C13.97123566 -0.0220793 16.14350287 -0.02904469 18.31576538 -0.03717041 C24.20005712 -0.05508408 30.08419959 -0.05393681 35.96851039 -0.04822803 C40.88649489 -0.04513375 45.80445081 -0.05123126 50.72243124 -0.05726677 C62.32674295 -0.07130437 73.93098102 -0.0697569 85.53529358 -0.05836487 C97.4953909 -0.04688282 109.455264 -0.06096268 121.41533178 -0.08776134 C131.69585526 -0.10993177 141.97630843 -0.11655272 152.25685412 -0.11068493 C158.39172872 -0.10731759 164.52645958 -0.1097159 170.66131401 -0.12693596 C176.43081268 -0.14242438 182.1999796 -0.13842816 187.96946526 -0.11963081 C190.08255959 -0.11595031 192.1956786 -0.11903762 194.30875015 -0.1295166 C214.79750287 -0.22333871 214.79750287 -0.22333871 222.55702209 4.38768005 C223.92794006 5.18238708 223.92794006 5.18238708 225.32655334 5.9931488 C232.4745741 11.528423 236.04375334 17.75578354 238.55702209 26.38768005 C240.26162029 42.30106897 236.70387693 58.35300798 234.11619949 74.00321579 C233.48274486 77.85405015 232.86592418 81.70755115 232.24720764 85.56077576 C231.08469399 92.78571963 229.90845526 100.00835112 228.72653866 107.23014355 C227.35904643 115.58939426 226.00810356 123.95129342 224.65858459 132.3134613 C224.19052476 135.21256931 223.72232778 138.11165515 223.25404358 141.01072693 C223.13941363 141.72044207 223.02478369 142.4301572 222.90668011 143.16137886 C222.10262773 148.13761427 221.29546672 153.11333949 220.48695374 158.08885193 C217.83773278 174.39739015 215.23189448 190.71200917 212.68540955 207.03697205 C211.73343925 213.1372 210.77651571 219.2366528 209.81939697 225.33607483 C209.14374745 229.64210582 208.46941748 233.9483223 207.80018616 238.25535583 C207.14791874 242.44728638 206.47891059 246.63635037 205.80702209 250.82518005 C205.54526184 252.52940125 205.54526184 252.52940125 205.2782135 254.26805115 C202.04332674 274.11336491 193.48781706 290.14004383 177.09217834 301.96580505 C163.69672773 311.13238298 150.27744761 315.720047 134.07351685 315.64164734 C133.06661897 315.64476732 132.05972109 315.6478873 131.02231115 315.65110183 C127.67452692 315.65902988 124.32692657 315.65277863 120.97914124 315.64646912 C118.56877029 315.64918116 116.15840017 315.65274329 113.74803162 315.65708923 C107.89828052 315.66524356 102.04858713 315.66407651 96.19883431 315.65826395 C91.44604311 315.6537376 86.69326629 315.65313875 81.94047356 315.65531158 C80.9238599 315.65577128 80.9238599 315.65577128 79.8867086 315.65624027 C78.50975613 315.65687974 77.13280366 315.65752817 75.7558512 315.65818545 C62.86767162 315.66387839 49.97952057 315.65734557 37.09134566 315.64658472 C26.03065522 315.63763596 14.97000672 315.63921414 3.90931702 315.64842224 C-8.94524293 315.65911878 -21.79977798 315.66334408 -34.65434176 315.65719771 C-36.02394108 315.65656062 -37.3935404 315.65593188 -38.76313972 315.65531158 C-39.43697473 315.65500303 -40.11080973 315.65469448 -40.80506397 315.65437658 C-45.55619515 315.65264884 -50.30731053 315.65556614 -55.05843925 315.66027069 C-61.44506047 315.66645605 -67.83162089 315.66207049 -74.21823502 315.65048218 C-76.56647802 315.64782959 -78.91472768 315.64861082 -81.26296806 315.65300751 C-84.45818968 315.65844032 -87.65315316 315.65165658 -90.84835815 315.64164734 C-91.78608077 315.64610878 -92.72380338 315.65057023 -93.68994182 315.65516686 C-94.5431799 315.64995137 -95.39641797 315.64473588 -96.27551174 315.63936234 C-97.0132037 315.63903763 -97.75089566 315.63871293 -98.51094192 315.63837838 C-100.44297791 315.38768005 -100.44297791 315.38768005 -103.44297791 313.38768005 C-104.24505959 307.39080762 -102.43813998 303.53323134 -99.75547791 298.38768005 C-88.97773522 276.56631205 -85.5168229 252.87857774 -81.63047791 229.07518005 C-81.30028908 227.07001233 -80.96916874 225.06500002 -80.6379261 223.06000614 C-77.63208209 204.86307972 -74.71296888 186.65254373 -71.84385681 168.43357849 C-70.04419374 157.02709609 -68.1326757 145.64469882 -66.14653015 134.2693634 C-63.33588755 118.13328471 -60.83129176 101.94951957 -58.33384705 85.76243591 C-56.7351636 75.42650407 -55.08915702 65.10120457 -53.31407166 54.79393005 C-53.15345245 53.85313599 -52.99283325 52.91234192 -52.8273468 51.94303894 C-49.86240903 34.94663694 -43.99163057 21.71682409 -30.44297791 10.38768005 C-20.83113573 3.72464063 -11.70815023 -0.08470201 0 0 Z " fill="#07284C" transform="translate(431.44297790527344,167.61231994628906)"/>
<path d="M0 0 C1.17511894 -0.01210762 1.17511894 -0.01210762 2.37397766 -0.02445984 C4.03762589 -0.03831987 5.70130279 -0.0490334 7.36499023 -0.05688477 C9.89818247 -0.07403193 12.43004722 -0.11789022 14.96289062 -0.16210938 C16.57941748 -0.17224192 18.19595545 -0.18075626 19.8125 -0.1875 C20.56585129 -0.20500809 21.31920258 -0.22251617 22.09538269 -0.24055481 C27.31829959 -0.21924576 30.21020119 0.96037906 34.23828125 4.23828125 C37.57426187 7.83762876 38.56856538 10.75495028 38.86328125 15.55078125 C38.36182922 26.50898297 29.15687921 33.85761867 22.015625 41.36376953 C20.13054959 43.35190264 18.26141311 45.35415384 16.39453125 47.359375 C9.40403547 54.85315235 2.34644571 62.25622435 -4.98193359 69.42163086 C-7.72104554 72.11675279 -10.32182387 74.85810933 -12.8125 77.78515625 C-18.32202982 84.15919511 -24.41201499 89.99318644 -30.38671875 95.92578125 C-31.61351607 97.14755071 -32.84008028 98.3695543 -34.06640625 99.59179688 C-36.31838861 101.83567749 -38.57170512 104.07819869 -40.82666016 106.3190918 C-45.68252264 111.09579885 -45.68252264 111.09579885 -50.39453125 116.01171875 C-58.32850314 124.52723832 -68.83861192 131.14164331 -80.69705582 131.61580467 C-82.51445609 131.63211433 -84.33204895 131.63234474 -86.1494751 131.61923218 C-87.15819097 131.62391215 -88.16690685 131.62859212 -89.20618987 131.63341391 C-92.56630694 131.64532371 -95.92601314 131.63592233 -99.28613281 131.62646484 C-101.70296465 131.63053221 -104.11979463 131.63587502 -106.53662109 131.64239502 C-112.40658243 131.65463526 -118.27643808 131.65287086 -124.14639643 131.6441571 C-128.91683889 131.63736971 -133.6872491 131.63646837 -138.45769501 131.63972855 C-139.47780877 131.64041809 -139.47780877 131.64041809 -140.51853089 131.64112157 C-141.90023044 131.64208078 -143.28192997 131.64305342 -144.6636295 131.64403935 C-157.60195276 131.65258232 -170.54021212 131.64277496 -183.47852489 131.62663825 C-194.57783758 131.61322393 -205.67705618 131.61557441 -216.77636719 131.62939453 C-229.67599465 131.64544883 -242.57556627 131.65177118 -255.47520232 131.64255774 C-256.85047006 131.64160211 -258.2257378 131.640659 -259.60100555 131.63972855 C-260.27761823 131.63926572 -260.95423091 131.63880289 -261.651347 131.63832604 C-266.41756459 131.6357366 -271.18374671 131.64010589 -275.9499588 131.64716721 C-282.36204507 131.65645855 -288.77399524 131.64984506 -295.18606567 131.63248444 C-297.54152887 131.62851143 -299.89700701 131.62966748 -302.25246429 131.63627243 C-305.46247891 131.64444523 -308.67191915 131.63421768 -311.88189697 131.61923218 C-312.81836697 131.62592434 -313.75483696 131.63261651 -314.71968484 131.63951147 C-319.55501511 131.59559289 -322.85036196 131.40836956 -326.76171875 128.23828125 C-329.06041 125.40322871 -329.80824246 124.0331007 -329.59350586 120.36450195 C-328.60656911 116.65516088 -327.31014697 115.19367712 -324.578125 112.53125 C-323.73314453 111.69787109 -322.88816406 110.86449219 -322.01757812 110.00585938 C-321.12876953 109.15443359 -320.23996094 108.30300781 -319.32421875 107.42578125 C-318.43927734 106.55501953 -317.55433594 105.68425781 -316.64257812 104.78710938 C-310.35822488 98.64634379 -307.84335405 97.08891415 -299.01107788 97.1137085 C-297.63499861 97.11159327 -297.63499861 97.11159327 -296.23111975 97.10943532 C-293.13762589 97.10576714 -290.04417744 97.10912548 -286.95068359 97.11230469 C-284.73992375 97.11091054 -282.52916417 97.10901164 -280.31840515 97.10664368 C-275.54554403 97.10213791 -270.77269153 97.10029039 -265.99982834 97.10018158 C-258.44254117 97.09904246 -250.88530301 97.08621084 -243.32803345 97.07061768 C-242.05284674 97.06804482 -240.77766003 97.06547197 -239.46383131 97.06282115 C-236.85533266 97.05755405 -234.24683404 97.05226856 -231.63833547 97.04696512 C-224.92718645 97.03358091 -218.21603607 97.02130733 -211.50488281 97.01025391 C-210.83134123 97.00914035 -210.15779965 97.00802678 -209.46384771 97.00687948 C-198.58191159 96.98935543 -187.70001273 96.98643177 -176.81806485 96.98810431 C-165.63074712 96.98938778 -154.44354586 96.97119565 -143.25627482 96.93708634 C-136.9813457 96.91867645 -130.7066938 96.9092396 -124.43174362 96.92156219 C-118.51697005 96.93306329 -112.60269074 96.92114476 -106.68798256 96.89192772 C-104.52743355 96.88532792 -102.36683872 96.88708321 -100.20630836 96.89822578 C-73.03454252 97.02662754 -52.87152606 87.26584171 -33.16796875 68.80859375 C-17.66567413 52.61612848 -13.66901531 32.55631179 -10.37231445 11.18164062 C-10.17597412 9.91255859 -9.97963379 8.64347656 -9.77734375 7.3359375 C-9.60493164 6.18617432 -9.43251953 5.03641113 -9.25488281 3.85180664 C-8.27572772 -1.33723062 -4.47338479 0.04328197 0 0 Z " fill="#1A8DFE" transform="translate(662.76171875,400.76171875)"/>
<path d="M0 0 C3.9396246 2.39803236 5.829361 4.53028746 7 9 C7.75531145 13.15421299 6.91352373 15.58177212 4.75 19.0625 C0.55522465 24.94109363 -4.45990437 30.10034636 -9.42089844 35.328125 C-11.40407731 37.42781717 -13.3581805 39.55309012 -15.31054688 41.68139648 C-36.20348251 64.44888486 -36.20348251 64.44888486 -46.69140625 74.62890625 C-48.56260825 76.55076685 -50.30581567 78.49816097 -52.05078125 80.53125 C-56.51959252 85.67394389 -61.27099484 90.52928496 -66.06787109 95.36303711 C-67.09976002 96.40641304 -68.12717837 97.45423076 -69.14990234 98.5065918 C-81.17576063 110.87864317 -95.70285405 123.74142662 -113.82790661 124.25447559 C-115.6537201 124.26666978 -117.47962643 124.26808169 -119.3054657 124.26069641 C-120.3174107 124.26452196 -121.3293557 124.26834751 -122.37196571 124.27228898 C-125.74892578 124.28257415 -129.12571442 124.27863539 -132.50268555 124.2746582 C-134.92922116 124.27900701 -137.3557554 124.28419073 -139.7822876 124.29014587 C-145.67976696 124.30213705 -151.57720407 124.30469006 -157.474691 124.30234561 C-162.26755949 124.30056015 -167.06041418 124.30231695 -171.85328102 124.30657005 C-172.53626771 124.30716524 -173.21925441 124.30776043 -173.92293767 124.30837366 C-175.31051574 124.30958543 -176.69809381 124.31079957 -178.08567188 124.31201603 C-191.08358573 124.32288033 -204.08147359 124.32073372 -217.07938889 124.31463119 C-228.97071054 124.30945697 -240.8619504 124.32073272 -252.75325587 124.33972941 C-264.97010509 124.35909638 -277.1869156 124.3673662 -289.40378028 124.36360615 C-296.26004055 124.36169315 -303.11623112 124.3641918 -309.97247887 124.37832069 C-316.41491062 124.39146299 -322.85721922 124.38899019 -329.2996521 124.37590981 C-331.66640592 124.37353678 -334.03317118 124.37630454 -336.39991188 124.38453293 C-339.62529582 124.39493997 -342.85012178 124.38694825 -346.07548523 124.3742218 C-347.48704983 124.38528323 -347.48704983 124.38528323 -348.92713088 124.39656812 C-353.75151244 124.35639445 -357.1141841 124.20436047 -361 121 C-362.69439191 117.61121618 -362.73779843 114.62819732 -362 111 C-357.7027385 101.59500491 -349.5409352 93.14296714 -340 89 C-324.65051391 84.63073401 -307.24818847 86.30514219 -291.48596025 86.66619897 C-285.10532137 86.78790832 -278.72479516 86.78054218 -272.34318542 86.78691101 C-261.64396281 86.81414843 -250.94857937 86.91550978 -240.25073242 87.07788086 C-229.27230924 87.24425989 -218.29465376 87.37266257 -207.31518555 87.44506836 C-206.63718892 87.44955749 -205.95919229 87.45404662 -205.26065031 87.45867179 C-197.84840603 87.50696703 -190.43612291 87.54819282 -183.02383709 87.58950329 C-180.4038862 87.60442075 -177.7839359 87.61944122 -175.16398621 87.63456726 C-173.88452753 87.64182192 -172.60506886 87.64907657 -171.28683871 87.65655106 C-163.70926355 87.70308134 -156.13264072 87.77813991 -148.55560744 87.87979472 C-143.84397026 87.94202281 -139.13224386 87.99321568 -134.42046356 88.04327011 C-132.24320021 88.06952408 -130.06599443 88.10123005 -127.88889885 88.13891029 C-112.66837264 88.60234053 -112.66837264 88.60234053 -98 85 C-96.48599609 84.39671875 -96.48599609 84.39671875 -94.94140625 83.78125 C-87.24202361 79.63445607 -81.17536362 74.09460472 -75 68 C-74.3797998 67.39349609 -73.75959961 66.78699219 -73.12060547 66.16210938 C-64.60691294 57.85051333 -64.60691294 57.85051333 -56.58203125 49.07421875 C-52.1021948 43.89109749 -47.20105404 39.15273465 -42.31640625 34.35546875 C-38.27294744 30.35588111 -34.41561373 26.27520668 -30.70605469 21.96435547 C-27.84518063 18.6703382 -24.85809051 15.49555591 -21.875 12.3125 C-21.28074219 11.67505859 -20.68648437 11.03761719 -20.07421875 10.38085938 C-8.41920555 -2.08460176 -8.41920555 -2.08460176 0 0 Z " fill="#1B8EFE" transform="translate(696,458)"/>
<path d="M0 0 C3.84371929 1.70831969 5.40944895 3.16600794 7 7 C7.74585276 10.81532372 7.85317378 14.48265096 5.91209412 17.93481445 C1.99458655 22.95103557 -2.23481449 27.48348028 -6.77734375 31.9375 C-7.50691788 32.66187256 -8.236492 33.38624512 -8.98817444 34.13256836 C-11.29984936 36.42658583 -13.6181427 38.71375221 -15.9375 41 C-18.25240734 43.28710427 -20.56575577 45.5757317 -22.87611389 47.86743164 C-24.30689808 49.28615448 -25.74034409 50.70220012 -27.17698669 52.11499023 C-31.11292849 56.01203239 -34.83065487 60.02608368 -38.44703674 64.22094727 C-40.3369588 66.38601523 -42.32556595 68.42340102 -44.375 70.4375 C-45.13296875 71.18773437 -45.8909375 71.93796875 -46.671875 72.7109375 C-48.22395833 74.23697917 -49.77604167 75.76302083 -51.328125 77.2890625 C-55.55044812 81.46830069 -59.60860667 85.71253541 -63.46777344 90.23071289 C-74.51998786 102.99288592 -89.14260946 115.35791657 -106 119 C-107.45971581 119.08973522 -108.92289339 119.13075999 -110.38536072 119.13422108 C-111.26170701 119.13867892 -112.1380533 119.14313676 -113.04095554 119.14772969 C-113.99931277 119.14754533 -114.95767 119.14736097 -115.94506836 119.14717102 C-116.96655189 119.15084771 -117.98803541 119.1545244 -119.04047298 119.1583125 C-122.47360163 119.16935228 -125.90670001 119.17319362 -129.33984375 119.17700195 C-131.79696753 119.18326615 -134.25409037 119.18991291 -136.71121216 119.19691467 C-144.08967603 119.21613861 -151.46813186 119.22674003 -158.84661341 119.23564246 C-162.32082871 119.24002707 -165.79504249 119.24539324 -169.26925659 119.25063133 C-180.81587915 119.26763741 -192.36250076 119.28213371 -203.90913391 119.28938007 C-206.90394085 119.29128996 -209.89874778 119.2932103 -212.89355469 119.29516602 C-214.01006836 119.29589163 -214.01006836 119.29589163 -215.14913785 119.2966319 C-227.21923353 119.30494036 -239.28923037 119.33029375 -251.35928285 119.36274669 C-263.74888676 119.39578774 -276.13844036 119.41382594 -288.52808857 119.41702431 C-295.48557483 119.41919161 -302.44291674 119.42797268 -309.40036011 119.45348549 C-315.9404216 119.47741266 -322.48026937 119.48103689 -329.02038193 119.47072411 C-331.42464944 119.47022644 -333.82892939 119.47661418 -336.23315811 119.49028015 C-339.5073995 119.50785495 -342.78069126 119.50096381 -346.05493164 119.48774719 C-347.01328887 119.49871644 -347.9716461 119.50968568 -348.95904446 119.52098733 C-355.34176552 119.45848984 -355.34176552 119.45848984 -358.57859802 117.2038908 C-360.30404808 114.52857195 -360.75455737 112.29609496 -360.55078125 109.1171875 C-359.68121487 105.774599 -357.9130955 103.89458443 -355.45598507 101.52200127 C-353.56278584 99.57791336 -351.96611912 97.70095602 -350.31727695 95.56712532 C-344.89064723 88.91552583 -340.09650288 84.36067645 -331.3080548 83.43748927 C-326.21066428 83.1991848 -321.14452891 83.26604646 -316.04467773 83.38232422 C-313.74845762 83.38296026 -311.45222868 83.37736093 -309.15603638 83.36604309 C-302.95434891 83.35244029 -296.75624858 83.42400721 -290.55525851 83.51028204 C-284.04717291 83.58492552 -277.53921391 83.57654289 -271.03077698 83.57620239 C-260.10502674 83.58606777 -249.18046408 83.64173313 -238.25512695 83.73632812 C-227.04162699 83.83323498 -215.82832766 83.912242 -204.61450195 83.95996094 C-203.57812857 83.96439006 -203.57812857 83.96439006 -202.52081835 83.96890865 C-194.96495238 84.000595 -187.40907976 84.0261748 -179.85317326 84.04586983 C-179.1876224 84.04762245 -178.52207155 84.04937508 -177.83635249 84.05118082 C-174.51640587 84.0598636 -171.19645897 84.06818158 -167.8765102 84.07600224 C-160.14242083 84.09678704 -152.40908615 84.14425164 -144.67529476 84.21479297 C-139.8564481 84.25579955 -135.0375994 84.28089314 -130.21863174 84.30272484 C-127.993857 84.31649934 -125.76911219 84.33727341 -123.54447746 84.36578178 C-102.14640507 84.63480069 -87.44047876 80.84543732 -71.57861328 65.54052734 C-68.14227524 62.18709508 -64.71862371 58.82164399 -61.3125 55.4375 C-60.5994873 54.72932129 -59.88647461 54.02114258 -59.15185547 53.29150391 C-55.14872718 49.27535127 -51.34366469 45.15357842 -47.64135742 40.85961914 C-44.76753385 37.60364499 -41.64942419 34.60532194 -38.5390625 31.578125 C-35.80226154 28.88476533 -33.21181286 26.12639407 -30.70703125 23.21484375 C-26.5818369 18.44732203 -22.15461016 14.0077661 -17.6875 9.5625 C-16.87732422 8.74845703 -16.06714844 7.93441406 -15.23242188 7.09570312 C-14.45833984 6.32291016 -13.68425781 5.55011719 -12.88671875 4.75390625 C-12.18764404 4.05595947 -11.48856934 3.3580127 -10.76831055 2.63891602 C-7.34570096 -0.5332472 -4.57068818 -0.30987717 0 0 Z " fill="#1A8CFE" transform="translate(695,512)"/>
<path d="M0 0 C5.4830137 2.21393165 9.53602875 5.55873015 12 11 C13.11700269 17.92308961 11.73416549 23.0713275 8 29 C5.16632247 32.3664089 2.06387821 35.42653885 -1.078125 38.50390625 C-1.96352966 39.3860228 -2.84893433 40.26813934 -3.76116943 41.17698669 C-6.10506952 43.50785193 -8.457592 45.82953309 -10.81439209 48.14733887 C-13.19087031 50.48996988 -15.55334162 52.84657997 -17.91796875 55.20117188 C-19.74141903 57.01119116 -21.56561367 58.82046094 -23.390625 60.62890625 C-24.23361145 61.46450577 -25.0765979 62.30010529 -25.94512939 63.161026 C-29.48302505 66.64267527 -33.02453017 70.06670431 -36.80371094 73.28613281 C-42.14423934 77.89195925 -47.0282654 82.96712158 -51.97229004 87.98882103 C-53.78621806 89.82972544 -55.60477484 91.66593768 -57.42480469 93.50080872 C-62.59390207 98.71233376 -67.76011712 103.92661479 -72.91015625 109.15698242 C-76.07482002 112.37032977 -79.24930448 115.57368882 -82.43029785 118.7708683 C-83.63316271 119.98358128 -84.83237583 121.19992847 -86.02770996 122.42006493 C-99.40600956 136.0699478 -99.40600956 136.0699478 -108.1953125 137.53125 C-109.16210938 137.5209375 -110.12890625 137.510625 -111.125 137.5 C-112.09695313 137.5103125 -113.06890625 137.520625 -114.0703125 137.53125 C-120.3249547 136.39707488 -124.20957105 132.00238836 -128.3125 127.4375 C-128.7854248 126.9130127 -129.25834961 126.38852539 -129.74560547 125.84814453 C-133.57844254 121.56211342 -137.21457519 117.12673757 -140.8203125 112.6484375 C-142.97757399 110.02724881 -145.21311 107.50845719 -147.5 105 C-151.41303733 100.70652848 -155.08432204 96.25842104 -158.7265625 91.734375 C-161.01932203 88.97676044 -163.42421905 86.36733888 -165.875 83.75 C-171.07097731 77.99180525 -173.64934067 73.20516501 -173.3515625 65.2734375 C-172.54617195 60.06524529 -170.28612114 56.22181508 -166.5 52.625 C-160.84737352 48.95079279 -156.71035778 48.3578605 -150 49 C-140.73868533 51.83509633 -134.13259183 61.91394284 -128.32421875 69.171875 C-125.93125699 72.08364695 -123.43129708 74.85600044 -120.875 77.625 C-116.63951543 82.22447152 -112.73659152 86.98900807 -109 92 C-105.47698251 90.49659978 -103.22665515 88.46395953 -100.54199219 85.75317383 C-99.66718201 84.87498489 -98.79237183 83.99679596 -97.89105225 83.09199524 C-96.94296772 82.13036566 -95.99490931 81.16871034 -95.046875 80.20703125 C-94.06335971 79.21723715 -93.07932189 78.22796203 -92.0947876 77.23918152 C-89.50270303 74.63380428 -86.91623403 72.02292934 -84.33135986 69.41040039 C-80.21028786 65.24622327 -76.08263744 61.08859785 -71.95145416 56.93445396 C-70.52007002 55.49297793 -69.09222841 54.048064 -67.66473389 52.60273743 C-63.21052684 48.11574987 -58.70343514 43.79953239 -53.90435791 39.68495178 C-50.45508152 36.63307567 -47.27531083 33.31634541 -44.0625 30.01953125 C-42.57596788 28.51062716 -41.08897488 27.002177 -39.6015625 25.49414062 C-37.29308509 23.14853283 -34.98785382 20.80004182 -32.69042969 18.44360352 C-30.4486612 16.14715193 -28.19422333 13.86377594 -25.9375 11.58203125 C-25.26017822 10.88092728 -24.58285645 10.1798233 -23.88500977 9.45747375 C-17.08832578 2.6241219 -9.9335399 -1.81326522 0 0 Z " fill="#FAFBFB" transform="translate(597,249)"/>
<path d="M0 0 C1.07912659 -0.00960754 2.15825317 -0.01921509 3.27008057 -0.02911377 C4.44906921 -0.03336365 5.62805786 -0.03761353 6.84277344 -0.04199219 C8.05350525 -0.04769226 9.26423706 -0.05339233 10.51165771 -0.05926514 C13.08751548 -0.06873992 15.66338549 -0.07525889 18.23925781 -0.07910156 C22.14377832 -0.08872335 26.04775354 -0.11968853 29.95214844 -0.15136719 C32.45735365 -0.15790547 34.96256263 -0.16315269 37.46777344 -0.16699219 C39.19982025 -0.18551239 39.19982025 -0.18551239 40.96685791 -0.20440674 C54.99031518 -0.16672763 67.74754188 2.78177976 78.32324219 12.37597656 C87.33598848 22.25325487 89.74237536 33.91672803 89.29589844 46.90332031 C88.64778136 57.23152891 85.00218627 66.53476109 77.95214844 74.16113281 C64.84175339 85.31129195 51.37806863 86.46909461 34.88964844 86.28613281 C29.63027344 86.24488281 24.37089844 86.20363281 18.95214844 86.16113281 C18.95214844 100.68113281 18.95214844 115.20113281 18.95214844 130.16113281 C10.70214844 130.16113281 2.45214844 130.16113281 -6.04785156 130.16113281 C-6.07039839 113.35889148 -6.08883062 96.55666299 -6.09966373 79.75441074 C-6.10482674 71.95337445 -6.11186953 64.15234821 -6.12329102 56.35131836 C-6.13323771 49.55436968 -6.13970495 42.75742828 -6.14194006 35.96047252 C-6.14324719 32.3593515 -6.1463332 28.75825129 -6.15358162 25.15713692 C-6.1615952 21.14356679 -6.16184271 17.13003317 -6.16137695 13.11645508 C-6.16497223 11.91380508 -6.1685675 10.71115509 -6.17227173 9.47206116 C-6.17089706 8.38526062 -6.1695224 7.29846008 -6.16810608 6.1787262 C-6.16902787 5.22835763 -6.16994967 4.27798906 -6.17089939 3.29882145 C-5.93399769 -0.81683085 -3.57629259 0.0256124 0 0 Z " fill="#062649" transform="translate(103.0478515625,688.8388671875)"/>
<path d="M0 0 C5.63520665 4.67401755 9.3396296 9.71791542 12.5859375 16.25 C13.20662109 17.37535156 13.20662109 17.37535156 13.83984375 18.5234375 C16.88616792 25.08311812 16.97011281 31.64136502 17.0234375 38.75 C17.03358887 39.71123779 17.04374023 40.67247559 17.05419922 41.6628418 C16.90112395 54.32820294 13.13367566 66.7088843 4.2734375 76.0625 C-7.25939372 86.58809706 -20.56505063 90.62310069 -36.0390625 90.46484375 C-49.75847789 89.59150134 -61.0885907 83.07562686 -70.4140625 73.25 C-80.07983742 61.77967054 -82.46545122 46.83426357 -81.4140625 32.25 C-79.19472148 19.80297296 -73.50726382 8.17221085 -63.4140625 0.25 C-43.94711977 -12.98531517 -19.59530196 -14.20500854 0 0 Z " fill="#07264A" transform="translate(278.4140625,731.75)"/>
<path d="M0 0 C0.87914062 0.00563965 1.75828125 0.0112793 2.6640625 0.01708984 C16.31232235 0.27198523 29.39071738 4.95651893 39.4453125 14.46875 C45.98529056 21.64751661 49.125 29.65410099 49.125 39.3125 C40.875 39.3125 32.625 39.3125 24.125 39.3125 C22.475 36.0125 20.825 32.7125 19.125 29.3125 C14.23772364 24.29661111 8.16693987 21.96413168 1.22558594 21.84448242 C0.2167334 21.85958862 0.2167334 21.85958862 -0.8125 21.875 C-1.8658252 21.88527222 -1.8658252 21.88527222 -2.94042969 21.89575195 C-8.70038285 22.07432923 -12.20609605 22.99039527 -16.875 26.3125 C-20.82228825 30.56342581 -22.26172078 33.33796636 -22.14453125 39.21875 C-21.68325024 42.80203434 -20.27900177 44.66809806 -17.875 47.3125 C-10.49553102 51.79484412 -2.31270901 53.37834548 6 55.3125 C36.21788952 62.37875231 36.21788952 62.37875231 45.08203125 73.84375 C51.08188117 83.5369382 52.52254701 92.84500929 50.66015625 104.12890625 C47.96347142 114.3252471 41.83645507 122.05402572 33.01953125 127.6484375 C18.58850386 135.62538732 0.92572462 137.66504779 -15.125 134.25 C-28.80576267 130.20277438 -40.63333524 123.4163915 -47.6875 110.7265625 C-50.73975109 104.52165733 -50.875 100.40074141 -50.875 93.3125 C-42.625 93.3125 -34.375 93.3125 -25.875 93.3125 C-24.555 96.6125 -23.235 99.9125 -21.875 103.3125 C-18.07234499 108.17144806 -12.75721937 111.6518211 -6.60546875 112.69873047 C-4.22296832 112.84788785 -1.88641349 112.86806512 0.5 112.8125 C1.33345947 112.79968994 2.16691895 112.78687988 3.02563477 112.77368164 C9.92323053 112.54683576 16.48867608 111.92963488 21.60546875 106.83984375 C24.82893924 102.18616452 24.99761668 96.77099586 24.125 91.3125 C21.77140812 86.39135334 17.83691535 84.99241825 12.94140625 83.2109375 C6.7716393 81.24277328 0.49442306 79.77617014 -5.85546875 78.51953125 C-20.22916183 75.57564199 -34.80285659 70.56821667 -43.875 58.3125 C-48.81888449 49.7995753 -50.48135231 40.07753801 -48.19140625 30.43359375 C-44.68050345 19.95915761 -37.95808876 10.9651706 -28.01171875 5.8359375 C-18.74042517 1.80698908 -10.09028376 -0.06812499 0 0 Z " fill="#07264A" transform="translate(518.875,686.6875)"/>
<path d="M0 0 C6.53689763 5.94263421 10.39690914 14.10647191 11.22866821 22.86497498 C11.35821706 26.47868462 11.40084133 30.08319897 11.41015625 33.69921875 C11.4245033 35.0348413 11.44026681 36.37044929 11.45736694 37.70603943 C11.49893889 41.19958606 11.52411259 44.6930425 11.54486084 48.18676758 C11.58086287 53.78004239 11.64216723 59.37309351 11.70335007 64.96613884 C11.7222226 66.90467509 11.73359033 68.8432798 11.74478149 70.78187561 C11.75504364 71.97348801 11.76530579 73.1651004 11.77587891 74.39282227 C11.78237457 75.43156998 11.78887024 76.47031769 11.79556274 77.5405426 C11.95665675 81.29537204 12.46743604 85.02855086 12.93359375 88.7578125 C5.01359375 88.7578125 -2.90640625 88.7578125 -11.06640625 88.7578125 C-12.05640625 85.7878125 -13.04640625 82.8178125 -14.06640625 79.7578125 C-14.56269531 80.22832031 -15.05898438 80.69882812 -15.5703125 81.18359375 C-24.8507778 89.68921944 -33.44163296 91.26434563 -45.9140625 91.03515625 C-54.99000733 90.61684281 -63.63749853 87.27966828 -70.06640625 80.7578125 C-75.33545935 73.67608224 -75.82328019 66.33211301 -75.06640625 57.7578125 C-73.03501432 49.91370271 -68.09408321 43.28773215 -61.26171875 38.99609375 C-51.9184765 34.08673109 -42.91667664 32.55269518 -32.50390625 31.6328125 C-31.60994141 31.54644531 -30.71597656 31.46007812 -29.79492188 31.37109375 C-24.5274222 30.88557439 -19.35561682 30.67140766 -14.06640625 30.7578125 C-14.17371709 22.09745623 -14.17371709 22.09745623 -18.06640625 14.7578125 C-24.2162716 10.88072347 -30.96803982 10.93560789 -38.06640625 11.7578125 C-42.63534319 13.88473142 -44.9125806 16.22344271 -47.06640625 20.7578125 C-47.39640625 22.0778125 -47.72640625 23.3978125 -48.06640625 24.7578125 C-55.98640625 24.7578125 -63.90640625 24.7578125 -72.06640625 24.7578125 C-69.88194407 12.74327051 -67.5489887 5.37624993 -57.56640625 -1.7734375 C-40.7685225 -11.64219421 -15.88853917 -11.60300659 0 0 Z " fill="#072649" transform="translate(720.06640625,730.2421875)"/>
<path d="M0 0 C0.33 23.43 0.66 46.86 1 71 C3.31 68.36 5.62 65.72 8 63 C9.95026322 60.86642222 11.90550279 58.7404842 13.875 56.625 C22.84904664 47.44941085 22.84904664 47.44941085 30.70019531 37.3918457 C33 35 33 35 36.11621094 34.43237305 C37.31020508 34.45855713 38.50419922 34.48474121 39.734375 34.51171875 C41.67763672 34.53588867 41.67763672 34.53588867 43.66015625 34.56054688 C45.02345428 34.60232061 46.38673552 34.6446453 47.75 34.6875 C49.12886624 34.7125909 50.50777597 34.73540271 51.88671875 34.75585938 C55.25891356 34.81481383 58.62890741 34.89706829 62 35 C57.8920016 39.85377724 53.67201206 44.55938081 49.3125 49.1875 C43.9008104 54.9563135 38.53449641 60.76274157 33.20703125 66.609375 C31.50695993 68.45086819 29.79191051 70.24894738 28 72 C29.50621838 77.68915015 32.38805434 81.98843792 35.625 86.8125 C36.7927663 88.57870053 37.95937584 90.34566626 39.125 92.11328125 C40.05892578 93.52601318 40.05892578 93.52601318 41.01171875 94.96728516 C43.13557887 98.20679772 45.2297128 101.46448166 47.3125 104.73046875 C47.85177628 105.57603081 47.85177628 105.57603081 48.40194702 106.43867493 C50.17165822 109.21551758 51.93897411 111.99387737 53.70556641 114.77270508 C54.35187012 115.7861499 54.99817383 116.79959473 55.6640625 117.84375 C56.23592285 118.74287109 56.8077832 119.64199219 57.39697266 120.56835938 C58.94751224 123.00148775 58.94751224 123.00148775 60.70849609 125.13476562 C62 127 62 127 62 130 C52.50767827 131.41995407 42.34098835 132.74688498 33 130 C26.57691342 125.034446 23.5433026 117.28511013 20.37158203 110.01513672 C18.37036006 105.61586806 15.86132665 101.61900309 13.25 97.5625 C12.84241455 96.88960937 12.4348291 96.21671875 12.01489258 95.5234375 C11.06713089 93.97902844 10.04158471 92.48275179 9 91 C6.60258016 90.79092354 6.60258016 90.79092354 3.9296875 93.47265625 C-0.89946835 99.29846767 0.10935085 107.266278 0.125 114.4375 C0.10685453 115.94730032 0.08604603 117.45707112 0.0625 118.96679688 C0.00593054 122.64583238 0.00425789 126.31905789 0 130 C-8.25 130 -16.5 130 -25 130 C-25 87.43 -25 44.86 -25 1 C-2 0 -2 0 0 0 Z " fill="#06254A" transform="translate(871,689)"/>
<path d="M0 0 C4.9366973 4.42836412 8.50097152 10.29411842 9.97265625 16.76953125 C9.97265625 18.41953125 9.97265625 20.06953125 9.97265625 21.76953125 C-1.41234375 22.26453125 -1.41234375 22.26453125 -13.02734375 22.76953125 C-14.01734375 20.12953125 -15.00734375 17.48953125 -16.02734375 14.76953125 C-20.47982382 10.31705118 -24.27947181 9.62243666 -30.40234375 9.51953125 C-35.00509703 9.56254764 -38.15297577 10.0872765 -42.02734375 12.76953125 C-44.61026289 16.64390996 -44.35273756 19.34561591 -43.74633789 23.86279297 C-43.21047441 25.88148945 -43.21047441 25.88148945 -41.45092773 26.71533203 C-33.22590883 29.14400551 -24.83926927 30.73963804 -16.41992188 32.34375 C-6.52114131 34.34815928 2.2667416 36.85293877 8.81640625 44.92578125 C13.12353173 51.79390026 12.92142782 59.92978617 11.97265625 67.76953125 C9.90224128 75.22302514 5.35256176 80.53422235 -1.02734375 84.76953125 C-14.02209737 91.87603714 -30.7940294 93.24939352 -45.21484375 89.58203125 C-46.83610544 89.02536386 -48.44223648 88.42206708 -50.02734375 87.76953125 C-50.88328125 87.44082031 -51.73921875 87.11210938 -52.62109375 86.7734375 C-60.34519342 83.41159292 -66.28329593 77.81702612 -70.02734375 70.20703125 C-71.20774558 66.14939997 -71.09689666 62.98182907 -71.02734375 58.76953125 C-67.4659531 58.53649701 -63.90651929 58.39491344 -60.33984375 58.26953125 C-58.82874023 58.16898438 -58.82874023 58.16898438 -57.28710938 58.06640625 C-54.33658006 57.98850449 -51.88430998 58.01479146 -49.02734375 58.76953125 C-47.15389211 60.66247576 -46.13613319 62.38587093 -45.02856445 64.79907227 C-42.9976081 68.79610927 -39.09821207 70.41257514 -35.02734375 71.76953125 C-27.82288173 72.27579074 -21.3165932 72.59777005 -15.02734375 68.76953125 C-12.89839751 67.15404924 -12.89839751 67.15404924 -12.02734375 64.76953125 C-11.70185543 61.21289899 -11.70185543 61.21289899 -13.02734375 57.76953125 C-19.19689116 53.1401578 -26.14236448 52.33408265 -33.58984375 50.95703125 C-58.33296869 45.98547532 -58.33296869 45.98547532 -65.83984375 36.51953125 C-70.15971718 29.87357213 -69.68221669 22.39687485 -69.02734375 14.76953125 C-66.8716966 6.8830173 -61.67634862 1.31774469 -55.02734375 -3.23046875 C-38.26926936 -11.82116067 -15.38618883 -11.03002648 0 0 Z " fill="#072549" transform="translate(375.02734375,730.23046875)"/>
<path d="M0 0 C0.93779297 0.75216797 0.93779297 0.75216797 1.89453125 1.51953125 C9.21001908 8.07000074 12.63543818 16.44806723 14 26 C6.08 26 -1.84 26 -10 26 C-11.65 23.03 -13.3 20.06 -15 17 C-20.83814208 11.43986469 -26.58753278 11.56861716 -34.3203125 11.7265625 C-39.87611346 12.13941395 -42.6209586 13.40934575 -46.44921875 17.578125 C-51.46516468 23.95944303 -52.37026237 30.91328716 -52.3125 38.8125 C-52.30758545 39.60495117 -52.3026709 40.39740234 -52.29760742 41.21386719 C-52.15023732 48.59295246 -51.26277128 55.27091169 -46.8125 61.375 C-42.25908068 65.62485803 -37.88588194 68.18368188 -31.5625 68.4375 C-24.886151 68.06914971 -19.1422889 66.72724054 -14.5625 61.625 C-12.25632724 58.74721176 -11.45244904 56.6311226 -10 53 C-2.08 53 5.84 53 14 53 C11.45987111 65.13617136 7.5079343 74.80109694 -3 82 C-15.18884908 89.20023418 -27.31357919 92.13728416 -41.4375 89.3125 C-53.61883289 85.86495296 -64.31232279 79.74807397 -70.98046875 68.7265625 C-78.59431192 54.70806555 -80.40786624 39.13158058 -76.4375 23.625 C-72.11876826 10.45739832 -64.22782847 1.07296546 -52 -5.375 C-34.89801084 -13.29139247 -14.90157005 -12.09105782 0 0 Z " fill="#072649" transform="translate(821,732)"/>
<path d="M0 0 C7.92 0 15.84 0 24 0 C24 7.59 24 15.18 24 23 C31.59 23 39.18 23 47 23 C47 29.6 47 36.2 47 43 C39.41 43 31.82 43 24 43 C24.09690063 49.90544484 24.19961184 56.81028463 24.31738281 63.71533203 C24.35567666 66.06456199 24.39052879 68.41385066 24.421875 70.76318359 C24.46751627 74.13921094 24.52551299 77.51483391 24.5859375 80.890625 C24.59748871 81.94179504 24.60903992 82.99296509 24.62094116 84.07598877 C24.64081085 85.05670349 24.66068054 86.03741821 24.68115234 87.04785156 C24.69447601 87.90944885 24.70779968 88.77104614 24.7215271 89.65875244 C25.02449963 92.20597949 25.63609449 93.8364182 27 96 C30.29625296 97.64812648 33.99458475 97.38249331 37.625 97.5625 C40.38875 97.706875 43.1525 97.85125 46 98 C46 104.6 46 111.2 46 118 C41.98119705 120.00940148 36.91752085 119.27305785 32.5 119.3125 C30.9221875 119.35600586 30.9221875 119.35600586 29.3125 119.40039062 C21.59655596 119.46246196 14.10161066 118.60601904 8.09057617 113.32128906 C-0.07031432 104.59582506 -0.15017496 94.29794657 -0.09765625 83.0390625 C-0.0962413 81.89335785 -0.09482635 80.7476532 -0.09336853 79.56723022 C-0.0877858 75.91979322 -0.07523641 72.27241835 -0.0625 68.625 C-0.05748277 66.14713631 -0.05292025 63.66927165 -0.04882812 61.19140625 C-0.03782201 55.12758035 -0.0205692 49.0638007 0 43 C-5.28 43 -10.56 43 -16 43 C-16 36.4 -16 29.8 -16 23 C-10.72 23 -5.44 23 0 23 C0 15.41 0 7.82 0 0 Z " fill="#072649" transform="translate(591,701)"/>
<path d="M0 0 C7.92 0 15.84 0 24 0 C24 7.59 24 15.18 24 23 C31.59 23 39.18 23 47 23 C47 29.6 47 36.2 47 43 C39.41 43 31.82 43 24 43 C24.09697292 49.74472182 24.19972971 56.48883471 24.31738281 63.2331543 C24.35564405 65.52704496 24.39050189 67.82099503 24.421875 70.11499023 C24.46758706 73.4141156 24.52557222 76.71283296 24.5859375 80.01171875 C24.59748871 81.03585373 24.60903992 82.05998871 24.62094116 83.11515808 C24.64081085 84.07577652 24.66068054 85.03639496 24.68115234 86.02612305 C24.69447601 86.86773483 24.70779968 87.70934662 24.7215271 88.57646179 C25.04075943 91.35472761 25.76963353 93.49307439 27 96 C30.29625296 97.64812648 33.99458475 97.38249331 37.625 97.5625 C40.38875 97.706875 43.1525 97.85125 46 98 C46 104.6 46 111.2 46 118 C34.8263109 120.23473782 21.03011687 121.13306509 11 115 C10.05125 114.4225 9.1025 113.845 8.125 113.25 C0.0520678 104.70218944 -0.30284588 93.10210239 -0.1953125 81.96484375 C-0.1924826 80.84557999 -0.18965271 79.72631622 -0.18673706 78.57313538 C-0.17561732 75.02781095 -0.1505279 71.48274699 -0.125 67.9375 C-0.1149596 65.52148805 -0.10583561 63.1054721 -0.09765625 60.68945312 C-0.07570486 54.79286967 -0.0412319 48.89647887 0 43 C-5.28 43 -10.56 43 -16 43 C-16 36.4 -16 29.8 -16 23 C-10.72 23 -5.44 23 0 23 C0 15.41 0 7.82 0 0 Z " fill="#08274A" transform="translate(409,701)"/>
<path d="M0 0 C5.76569413 4.37479472 8.43703732 11.10875546 10 18 C11.04780614 29.00196442 9.99992397 39.16814001 3 48 C-1.3126806 52.58004354 -5.91861625 54.63680961 -12.1484375 55.37109375 C-19.52906991 55.52299539 -24.41942384 55.0072293 -30 50 C-30.56460938 49.50371094 -31.12921875 49.00742187 -31.7109375 48.49609375 C-37.82454292 42.30793217 -39.12986825 34.30828959 -39.3125 25.875 C-39.00993167 16.49538185 -37.36446961 9.20189982 -31 2 C-21.34768414 -5.79610127 -10.83587216 -5.57557894 0 0 Z " fill="#FAFAFB" transform="translate(261,746)"/>
<path d="M0 0 C4.99125 -0.061875 9.9825 -0.12375 15.125 -0.1875 C16.68879395 -0.21481201 18.25258789 -0.24212402 19.86376953 -0.27026367 C21.10755371 -0.27775635 22.35133789 -0.28524902 23.6328125 -0.29296875 C24.90012207 -0.3086792 26.16743164 -0.32438965 27.47314453 -0.34057617 C32.07320702 0.10363587 35.39505383 1.55280495 38.828125 4.6484375 C44.35715685 11.36226189 45.62744772 16.31121306 45 25 C43.98065342 31.01414483 41.52646872 35.01092026 37 39 C31.41474833 42.37083471 25.44881869 43.13050676 19.04296875 43.09765625 C18.04031982 43.09515869 17.0376709 43.09266113 16.00463867 43.09008789 C14.74498291 43.08098389 13.48532715 43.07187988 12.1875 43.0625 C8.165625 43.041875 4.14375 43.02125 0 43 C0 28.81 0 14.62 0 0 Z " fill="#F9F9FA" transform="translate(122,711)"/>
<path d="M0 0 C0.66585203 13.4156854 0.66585203 13.4156854 -3 19 C-8.47759307 24.53927768 -14.23191591 26.64113485 -21.9375 27.375 C-26.54584328 27.23154963 -30.30962562 25.74869264 -34 23 C-36.7636989 19.02718283 -37.70023436 15.80160702 -37 11 C-35.06490269 6.60205156 -32.84096175 4.614547 -28.5625 2.6875 C-19.4672167 -0.54072279 -9.54111875 -0.19383763 0 0 Z " fill="#F7F8F9" transform="translate(706,777)"/>
<path d="M0 0 C7.92 0 15.84 0 24 0 C23.67 0.66 23.34 1.32 23 2 C16.07 2 9.14 2 2 2 C1.67 17.18 1.34 32.36 1 48 C0.67 48 0.34 48 0 48 C0 32.16 0 16.32 0 0 Z " fill="#E6EAED" transform="translate(433,744)"/>
<path d="M0 0 C9.57 0 19.14 0 29 0 C23 7 23 7 21 8 C22.875 4.125 22.875 4.125 24 3 C16.08 2.67 8.16 2.34 0 2 C0 1.34 0 0.68 0 0 Z " fill="#283249" transform="translate(904,724)"/>
<path d="M0 0 C0.66 0.33 1.32 0.66 2 1 C-7.33333333 10.33333333 -16.66666667 19.66666667 -26 29 C-26.66 28.67 -27.32 28.34 -28 28 C-18.76 18.76 -9.52 9.52 0 0 Z " fill="#010B28" transform="translate(604,278)"/>
<path d="M0 0 C0.33 0 0.66 0 1 0 C1 1.65 1 3.3 1 5 C4.29237055 4.89040282 7.58356887 4.75971069 10.875 4.625 C11.81214844 4.5940625 12.74929688 4.563125 13.71484375 4.53125 C15.05869141 4.47324219 15.05869141 4.47324219 16.4296875 4.4140625 C17.25710449 4.3826416 18.08452148 4.3512207 18.93701172 4.31884766 C21.21986085 4.17400863 21.21986085 4.17400863 23 2 C23 3.65 23 5.3 23 7 C15.08 7 7.16 7 -1 7 C-0.67 4.69 -0.34 2.38 0 0 Z " fill="#101F3D" transform="translate(649,748)"/>
<path d="M0 0 C-1.52209661 3.72913668 -3.74032197 5.80631179 -6.75 8.4375 C-7.63945312 9.21867187 -8.52890625 9.99984375 -9.4453125 10.8046875 C-12.27307189 13.2346581 -15.11100636 15.6431894 -18 18 C-16.6489735 14.98984706 -15.13664313 12.88032534 -12.8125 10.546875 C-12.19632812 9.928125 -11.58015625 9.309375 -10.9453125 8.671875 C-10.30335938 8.03765625 -9.66140625 7.4034375 -9 6.75 C-8.35804688 6.1003125 -7.71609375 5.450625 -7.0546875 4.78125 C-6.43851562 4.16765625 -5.82234375 3.5540625 -5.1875 2.921875 C-4.62417969 2.36081055 -4.06085938 1.79974609 -3.48046875 1.22167969 C-2 0 -2 0 0 0 Z " fill="#137FFE" transform="translate(353,501)"/>
<path d="M0 0 C0.66 0.33 1.32 0.66 2 1 C1.34 4.96 0.68 8.92 0 13 C-2 11 -2 11 -2.01171875 8.65234375 C-1.90472656 7.75644531 -1.79773438 6.86054688 -1.6875 5.9375 C-1.58824219 5.03902344 -1.48898437 4.14054687 -1.38671875 3.21484375 C-1 1 -1 1 0 0 Z " fill="#0B1F3E" transform="translate(642,373)"/>
<path d="M0 0 C5.94 0 11.88 0 18 0 C14.6773117 2.21512553 13.71729219 2.20252523 9.875 2.0625 C8.25076856 2.00835895 6.62500568 1.97961462 5 2 C4.67 2.33 4.34 2.66 4 3 C2.33382885 3.04063832 0.66611905 3.042721 -1 3 C-0.67 2.01 -0.34 1.02 0 0 Z " fill="#17294B" transform="translate(682,722)"/>
<path d="M0 0 C4.29 0 8.58 0 13 0 C8.83360609 3.12479543 7.92637159 3.6288985 3 3 C2.01 2.01 1.02 1.02 0 0 Z " fill="#133154" transform="translate(687,775)"/>
<path d="M0 0 C3.63 0.33 7.26 0.66 11 1 C11 1.33 11 1.66 11 2 C7.37 2.33 3.74 2.66 0 3 C0 2.01 0 1.02 0 0 Z " fill="#142E4E" transform="translate(422,168)"/>
<path d="M0 0 C0 0.99 0 1.98 0 3 C-1.258125 3.04125 -2.51625 3.0825 -3.8125 3.125 C-4.52019531 3.14820313 -5.22789062 3.17140625 -5.95703125 3.1953125 C-8 3 -8 3 -11 1 C-9.54182203 0.83197949 -8.0834516 0.66562857 -6.625 0.5 C-5.81289063 0.4071875 -5.00078125 0.314375 -4.1640625 0.21875 C-2 0 -2 0 0 0 Z " fill="#152748" transform="translate(494,385)"/>
<path d="M0 0 C1 3 1 3 1 5 C0.34 5 -0.32 5 -1 5 C-1.33 6.98 -1.66 8.96 -2 11 C-2.33 11 -2.66 11 -3 11 C-2.25 3.375 -2.25 3.375 0 0 Z " fill="#0D1935" transform="translate(649,779)"/>
<path d="M0 0 C0.99 0.33 1.98 0.66 3 1 C1.35 2.65 -0.3 4.3 -2 6 C-2.33 5.34 -2.66 4.68 -3 4 C-2.01 2.68 -1.02 1.36 0 0 Z " fill="#051A3A" transform="translate(753,740)"/>
</svg>
